<?xml version="1.0" encoding="UTF-8"?>
<!DOCTYPE svg PUBLIC "-//W3C//DTD SVG 1.1//EN" "http://www.w3.org/Graphics/SVG/1.1/DTD/svg11.dtd">
<!-- Creator: CorelDRAW -->
<svg xmlns="http://www.w3.org/2000/svg" xml:space="preserve" width="1.55533in" height="0.309929in" version="1.1" style="shape-rendering:geometricPrecision; text-rendering:geometricPrecision; image-rendering:optimizeQuality; fill-rule:evenodd; clip-rule:evenodd"
viewBox="0 0 363.43 72.42"
 xmlns:xlink="http://www.w3.org/1999/xlink"
 xmlns:xodm="http://www.corel.com/coreldraw/odm/2003">
 <defs>
  <style type="text/css">
   <![CDATA[
    .fil0 {fill:#6C7FBD}
    .fil1 {fill:#4D61AA}
    .fil2 {fill:#3E4095}
    .fil3 {fill:#FEFEFE;fill-rule:nonzero}
   ]]>
  </style>
 </defs>
 <g id="Layer_x0020_1">
  <metadata id="CorelCorpID_0Corel-Layer"/>
  <g id="_1563513407792">
   <rect class="fil0" x="343.05" y="20.15" width="20.35" height="20.35"/>
   <rect class="fil1" x="343.07" width="20.35" height="20.35"/>
   <rect class="fil2" x="322.93" y="0.07" width="20.35" height="20.35"/>
  </g>
  <path class="fil3" d="M23.57 72.38c13.67,0 23.57,-9.41 23.57,-22.41 0,-13.05 -9.9,-22.41 -23.57,-22.41 -13.72,0 -23.57,9.36 -23.57,22.41 0,12.99 9.85,22.41 23.57,22.41zm0 -13.01c-5.28,0 -9.07,-3.83 -9.07,-9.4 0,-5.57 3.79,-9.4 9.07,-9.4 5.28,0 9.07,3.87 9.07,9.4 0,5.57 -3.79,9.4 -9.07,9.4l0 0z"/>
  <path id="_1" class="fil3" d="M79.22 27.7c-5.41,0 -10.06,2.09 -13.19,5.57l-1.99 -4.32 -10.16 0 0 42.06 14.49 0 0 -22.46c0,-5.39 2.58,-8.54 7.09,-8.54 3.62,0 5.45,2.43 5.45,7.32l0 23.68 14.49 0 0 -25.68c0,-10.71 -6.41,-17.63 -16.18,-17.63l0 0z"/>
  <path id="_2" class="fil3" d="M147.43 49.57c0,-12.33 -9.39,-22 -22.95,-22 -13.2,0 -22.85,9.48 -22.85,22.38 0,12.85 9.72,22.43 22.85,22.43 10.55,0 19.06,-6 22.02,-15.59l-14.41 0c-1.39,2.47 -4.22,3.95 -7.61,3.95 -4.57,0 -7.63,-2.49 -8.58,-7.32l31.23 0c0.18,-1.3 0.3,-2.57 0.3,-3.84l0 0zm-22.95 -10.66c4.37,0 7.4,2.27 8.67,6.48l-17.01 0c1.18,-4.18 4.12,-6.48 8.33,-6.48l0 0z"/>
  <path id="_3" class="fil3" d="M184.11 13.76l0 16.73c-3.01,-1.87 -6.57,-2.92 -10.45,-2.92 -12.92,0 -22.09,9.33 -22.09,22.41 0,13.07 9.18,22.44 22.09,22.44 4.89,0 9.27,-1.66 12.68,-4.54l1.36 3.13 10.72 0 0 -57.25 -14.32 0zm-8.52 45.85c-5.43,0 -9.42,-4.14 -9.42,-9.63 0,-5.49 4,-9.63 9.42,-9.63 5.43,0 9.42,4.14 9.42,9.63 0,5.49 -4,9.63 -9.42,9.63z"/>
  <path id="_4" class="fil3" d="M250.86 49.57c0,-12.33 -9.39,-22 -22.95,-22 -13.2,0 -22.85,9.48 -22.85,22.38 0,12.85 9.72,22.43 22.85,22.43 10.55,0 19.06,-6 22.02,-15.59l-14.41 0c-1.39,2.47 -4.22,3.95 -7.61,3.95 -4.57,0 -7.63,-2.49 -8.58,-7.32l31.23 0c0.18,-1.3 0.3,-2.57 0.3,-3.84l0 0zm-22.95 -10.66c4.37,0 7.4,2.27 8.67,6.48l-17.01 0c1.18,-4.18 4.12,-6.48 8.33,-6.48l0 0z"/>
  <path id="_5" class="fil3" d="M279.64 58.31c-3.05,0 -4.87,-1.82 -4.87,-4.83l0 -13.4 10.19 0 0 -11.14 -10.58 0 0 -12.29 -2.96 0 -18.84 20.04 0 3.39 7.7 0 0 15.89c0,9.35 5.66,15.03 14.95,15.03l9.96 0 0 -12.7 -5.56 0z"/>
  <path id="_6" class="fil3" d="M325.53 28.91l-1.48 3.25c-3.47,-2.86 -7.89,-4.52 -12.85,-4.52 -12.86,0 -22.06,9.27 -22.06,22.3 0,13.07 9.19,22.44 22.06,22.44 4.88,0 9.24,-1.61 12.7,-4.4l1.23 2.97 11.19 0 0 -42.05 -10.79 0zm-12.4 30.65c-5.43,0 -9.42,-4.09 -9.42,-9.59 0,-5.47 3.96,-9.57 9.42,-9.57 5.43,0 9.42,4.1 9.42,9.57 0,5.49 -4,9.59 -9.42,9.59l0 0z"/>
 </g>
</svg>
