<?xml version="1.0" encoding="UTF-8"?>
<!DOCTYPE svg PUBLIC "-//W3C//DTD SVG 1.1//EN" "http://www.w3.org/Graphics/SVG/1.1/DTD/svg11.dtd">
<!-- Creator: CorelDRAW -->
<svg xmlns="http://www.w3.org/2000/svg" xml:space="preserve" width="1.54352in" height="0.357008in" version="1.1" style="shape-rendering:geometricPrecision; text-rendering:geometricPrecision; image-rendering:optimizeQuality; fill-rule:evenodd; clip-rule:evenodd"
viewBox="0 0 626.73 144.96"
 xmlns:xlink="http://www.w3.org/1999/xlink"
 xmlns:xodm="http://www.corel.com/coreldraw/odm/2003">
 <defs>
  <style type="text/css">
   <![CDATA[
    .fil0 {fill:#6C7FBD}
    .fil1 {fill:#4D61AA}
    .fil2 {fill:#3E4095}
    .fil4 {fill:white}
    .fil3 {fill:white;fill-rule:nonzero}
   ]]>
  </style>
 </defs>
 <g id="Layer_x0020_1">
  <metadata id="CorelCorpID_0Corel-Layer"/>
  <g id="_1678798074416">
   <rect class="fil0" x="591.33" y="35.01" width="35.37" height="35.37"/>
   <rect class="fil1" x="591.36" width="35.37" height="35.37"/>
   <rect class="fil2" x="556.35" y="0.12" width="35.37" height="35.37"/>
  </g>
  <path class="fil3" d="M40.97 144.96c23.75,0 40.97,-16.36 40.97,-38.93 0,-22.67 -17.21,-38.93 -40.97,-38.93 -23.84,0 -40.97,16.26 -40.97,38.93 0,22.58 17.12,38.93 40.97,38.93zm0 -22.6c-9.18,0 -15.77,-6.65 -15.77,-16.33 0,-9.68 6.59,-16.33 15.77,-16.33 9.18,0 15.77,6.72 15.77,16.33 0,9.68 -6.59,16.33 -15.77,16.33l0 0z"/>
  <path class="fil4" d="M303.85 144.96c5.8,0 11.22,-0.98 16.08,-2.78l0 2.78 24.88 0 0 -38.93 0 -63.04 -24.88 0 0 26.87c-4.87,-1.8 -10.28,-2.77 -16.08,-2.77 -23.84,0 -40.97,16.26 -40.97,38.93 0,22.58 17.12,38.93 40.97,38.93zm0 -22.6c-9.18,0 -15.77,-6.65 -15.77,-16.33 0,-9.68 6.59,-16.33 15.77,-16.33 9.18,0 15.77,6.72 15.77,16.33 0,9.68 -6.59,16.33 -15.77,16.33z"/>
  <path class="fil4" d="M543.46 144.96c5.8,0 11.22,-0.98 16.08,-2.78l0 2.78 24.88 0 0 -38.93 0 -38.73 -24.88 0 0 2.57c-4.87,-1.8 -10.28,-2.77 -16.08,-2.77 -23.84,0 -40.97,16.26 -40.97,38.93 0,22.58 17.12,38.93 40.97,38.93zm0 -22.6c-9.18,0 -15.77,-6.65 -15.77,-16.33 0,-9.68 6.59,-16.33 15.77,-16.33 9.18,0 15.77,6.72 15.77,16.33 0,9.68 -6.59,16.33 -15.77,16.33z"/>
  <path class="fil3" d="M137.67 67.34c-6.73,0.22 -15.09,0.94 -21.01,2.91l0 -2.91 -5.36 0 -17.66 0 0.04 77.62 25.17 0 -0.04 -41.39c-0.01,-9.36 3.61,-13.9 11.44,-13.9 6.29,0 10.35,3.28 10.35,11.78l0.04 43.51 25.17 0 -0.04 -46.98c-0.01,-18.61 -11.14,-30.63 -28.11,-30.63l0 0z"/>
  <path class="fil3" d="M216.4 67.09l-0.09 0 -1.02 0.01 -0.05 0 -1.06 0.04 -0.01 0 -0.1 0c-22.63,1.02 -38.65,16.95 -38.65,38.88 0,21.87 16.07,37.91 38.75,38.89l0.01 0 1.06 0.04 0.04 0 1.02 0.01 0.09 0 0.77 -0.01c18.98,-0.28 33.66,-11.07 38.49,-27.08l-1.09 0 -25.04 0 -1.85 0c-2.79,2.84 -6.71,4.49 -11.28,4.49 -7.14,0 -12.71,-4.02 -14.83,-10.35l29.66 0 24.44 0 1.27 0c0.27,-1.94 0.42,-3.93 0.42,-5.98 0,-22.67 -17.21,-38.93 -40.97,-38.93zm-14.02 30.97c2.54,-5.18 7.66,-8.37 14.02,-8.37 6.35,0 11.45,3.21 14,8.37l-28.02 0z"/>
  <path class="fil3" d="M396.14 67.09l-0.09 0 -1.02 0.01 -0.05 0 -1.06 0.04 -0.01 0 -0.1 0c-22.63,1.02 -38.65,16.95 -38.65,38.88 0,21.87 16.07,37.91 38.75,38.89l0.01 0 1.06 0.04 0.04 0 1.02 0.01 0.09 0 0.77 -0.01c18.98,-0.28 33.66,-11.07 38.49,-27.08l-1.09 0 -25.04 0 -1.85 0c-2.79,2.84 -6.71,4.49 -11.28,4.49 -7.14,0 -12.71,-4.02 -14.83,-10.35l29.66 0 24.44 0 1.27 0c0.27,-1.94 0.42,-3.93 0.42,-5.98 0,-22.67 -17.21,-38.93 -40.97,-38.93zm-14.02 30.97c2.54,-5.18 7.66,-8.37 14.02,-8.37 6.35,0 11.45,3.21 14,8.37l-28.02 0z"/>
  <path class="fil3" d="M485.94 122.9c-5.28,0 -8.46,-3.16 -8.46,-8.39l0 -27.84 17.71 0 0 -19.35 -17.71 0 0 -24.34 -5.82 0 -32.95 37.8 0 5.89 13.59 -0 0 0 0.3 0 0 36.87c1.75,13.42 11.16,21.43 25.69,21.43l17.3 0 0 -22.06 -9.66 0z"/>
  <polygon class="fil3" points="597.21,144.96 597.21,126.49 591.81,126.49 591.81,122.74 606.27,122.74 606.27,126.49 600.87,126.49 600.87,144.96 "/>
  <polygon id="_1" class="fil3" points="608.6,144.96 608.6,122.74 614.09,122.74 617.4,137.92 620.67,122.74 626.2,122.74 626.2,144.96 622.79,144.96 622.79,127.43 619.16,144.96 615.65,144.96 612.02,127.43 612.02,144.96 "/>
 </g>
</svg>
